<svg id="Layer_1" enable-background="new 0 0 510.792 510.792" height="512" viewBox="0 0 510.792 510.792" width="512" xmlns="http://www.w3.org/2000/svg"><g><path d="m439.792 71.784-26.37 36.98-36.98 26.37-10.61-10.61 63.35-63.35z" fill="#5f55ae"/><path d="m387.052 124.524-20.5 39.591-44.95 25.859-34.47-29.17 36.28-36.28c17.54-17.54 46.09-17.54 63.64 0z" fill="#283366"/><path d="m368.627 101.261h89.59v15.005h-89.59z" fill="#283366" transform="matrix(.707 -.707 .707 .707 44.181 324.19)"/><path d="m387.052 188.164-30.98 30.98-34.47-29.17 65.45-65.45c17.54 17.55 17.54 46.1 0 63.64z" fill="#0a0a33"/><path d="m149.793 37.113c-10.22-14.688-26.308-23.968-44.139-25.46-17.831-1.499-35.238 4.983-47.758 17.767-12.462 12.726-18.581 30.188-16.787 47.91 1.795 17.722 11.29 33.604 26.051 43.572l152.949 103.299 35.3-35.3z" fill="#b3d9ff"/><path d="m499.923 405.921c-1.492-17.831-10.772-33.919-25.46-44.139l-151.788-105.615-35.3 35.3 103.299 152.949c9.969 14.761 25.851 24.256 43.572 26.051 2.033.205 4.061.308 6.081.308 15.583 0 30.563-6.062 41.829-17.095 12.784-12.52 19.26-29.928 17.767-47.759z" fill="#9af"/><path d="m201.72 269.479-105.65-37.488-89.236 18.481-6.084-29.377 97.449-20.182 113.554 40.293z" fill="#283366"/><path d="m17.584 347.937-17.584-24.307 67.788-49.037 101.785 11.811-3.457 29.801-90.197-10.467z" fill="#283366"/><path d="m293.558 508.423-29.532-5.279 15.633-87.432-37.562-105.856 28.273-10.033 40.219 113.346z" fill="#0a0a33"/><path d="m185.62 510.008-23.656-18.449 43.838-56.214-10.431-89.886 29.801-3.457 11.847 102.097z" fill="#0a0a33"/><path d="m259.521 164.115-20.129-68.438 34.4-35.918v-58.975h30v71.024l-30.717 32.072 15.227 51.77z" fill="#283366"/><path d="m416.486 272.357-69.025-20.302 8.465-28.781 51.181 15.054 30.13-32.544h73.555v30h-60.445z" fill="#0a0a33"/><path d="m242.092 269.484-24.196 45.96-149.044 127.28c-8.5-8.5-13.18-19.8-13.18-31.82s4.68-23.32 13.18-31.82l31.81-31.81 17.387-7.08 3.833-14.14 21.21-21.21 17.73-3.911 3.49-17.309 45.96-45.96z" fill="#8080ff"/><path d="m164.302 410.914-31.81 31.81c-8.5 8.5-19.8 13.18-31.82 13.18s-23.32-4.68-31.82-13.18l173.24-173.24 31.82 31.82-45.96 45.96-24.358-2.609 3.138 23.829-21.21 21.21-19.948 1.06z" fill="#5f55ae"/><path d="m227.952 347.264-21.22 21.22-31.82-31.82 5.484-15.615 15.736-5.605z" fill="#8080ff"/><path d="m154.607 287.643h30.01v45h-30.01z" fill="#9af" transform="matrix(.707 -.707 .707 .707 -169.626 210.773)"/><path d="m185.522 389.694-21.22 21.22-31.82-31.82 4.825-15.624 16.395-5.596z" fill="#8080ff"/><path d="m112.177 330.074h30.01v45h-30.01z" fill="#9af" transform="matrix(.707 -.707 .707 .707 -212.057 193.2)"/><path d="m344.622 166.954-44.226 67.527-83.054 59.753c-14.17-14.17-21.97-33-21.97-53.03 0-20.04 7.8-38.87 21.97-53.04l21.21-21.21c29.25-29.24 76.83-29.24 106.07 0z" fill="#5f55ae"/><path d="m344.622 273.024-21.21 21.21c-14.17 14.17-33 21.97-53.04 21.97-20.03 0-38.86-7.8-53.03-21.97l69.79-69.79 57.49-57.49c29.24 29.24 29.24 76.82 0 106.07z" fill="#283366"/></g></svg>